<?xml version="1.0" encoding="UTF-8"?>
<svg version="1.1" xmlns="http://www.w3.org/2000/svg" width="527" height="473">
<path d="M0 0 C1.93166016 0.01740234 1.93166016 0.01740234 3.90234375 0.03515625 C5.19269531 0.04417969 6.48304688 0.05320313 7.8125 0.0625 C8.81152344 0.07410156 9.81054688 0.08570313 10.83984375 0.09765625 C16.19577492 10.25259655 21.53377961 20.41656 26.83984375 30.59765625 C33.77098016 43.89378286 40.73107933 57.1739567 47.80175781 70.39648438 C50.93669466 76.26468448 54.03149095 82.15381296 57.12451172 88.04418945 C59.39111779 92.35736391 61.67340216 96.66122283 63.98046875 100.95288086 C68.77148003 109.87067343 73.2878563 118.9158194 77.77539062 127.98925781 C85.70550953 144.00876862 93.8246606 159.94049371 102.69165039 175.46411133 C105.53390945 180.47202372 108.13195534 185.57566653 110.6784668 190.73901367 C116.82840131 203.18851246 123.20802818 215.52239655 130.31640625 227.453125 C131.83174077 230.0835903 133.19308916 232.74630366 134.52734375 235.47265625 C137.38173883 241.29562222 140.47014979 246.97541316 143.58984375 252.66015625 C147.45913885 259.71455642 151.29052288 266.78460598 155.02734375 273.91015625 C155.43364014 274.68472168 155.83993652 275.45928711 156.25854492 276.25732422 C157.45315078 278.53699637 158.64658764 280.81727736 159.83984375 283.09765625 C165.00498707 292.96234025 170.28251545 302.74398958 175.76953125 312.43359375 C179.2052528 318.50200385 182.60577103 324.58498951 185.69140625 330.83984375 C187.9515975 335.38260966 190.41558378 339.80092112 192.90234375 344.22265625 C194.18104364 346.49885606 195.45640907 348.77627301 196.71533203 351.06347656 C197.69381567 352.8334995 198.70001696 354.58814427 199.7109375 356.33984375 C201.01570812 359.52727648 200.63930205 360.83619478 199.83984375 364.09765625 C191.97307233 364.26002745 184.10669507 364.38431417 176.23866749 364.46034145 C172.5848595 364.49683693 168.93219978 364.54631174 165.27905273 364.62573242 C161.75169842 364.70193617 158.22544642 364.74367428 154.69733238 364.76179695 C152.70009836 364.78097894 150.70330655 364.83560439 148.70674133 364.89073181 C139.85267659 364.89456615 139.85267659 364.89456615 136.92901611 362.5941925 C135.62017948 360.80067408 134.70513602 359.13654713 133.83984375 357.09765625 C133.07027344 355.66873047 133.07027344 355.66873047 132.28515625 354.2109375 C131.84945313 353.28667969 131.41375 352.36242187 130.96484375 351.41015625 C128.91584087 347.19131185 126.73814476 343.12828108 124.33984375 339.09765625 C121.52104747 334.33825077 118.99511333 329.50672939 116.55859375 324.54296875 C113.20238133 317.8152884 109.64991834 311.18829747 106.13330078 304.54345703 C104.86485335 302.14494696 103.59993924 299.74460537 102.3359375 297.34375 C101.54565683 295.84500783 100.75529576 294.34630806 99.96484375 292.84765625 C99.60801514 292.16936768 99.25118652 291.4910791 98.88354492 290.79223633 C97.17871332 287.56619509 95.43098551 284.38426312 93.58203125 281.23828125 C91.83984375 278.09765625 91.83984375 278.09765625 91.83984375 276.09765625 C69.20488322 276.05097813 46.56993061 276.01568798 23.93493176 275.99403191 C13.42559896 275.98371028 2.91629604 275.96963304 -7.59301758 275.94677734 C-16.75073077 275.92687057 -25.90842234 275.91394627 -35.06615657 275.90947926 C-39.9170901 275.90686727 -44.76796176 275.90070963 -49.6188755 275.88619614 C-54.18160081 275.87265505 -58.74423855 275.86842655 -63.30698204 275.87144089 C-64.98439891 275.87088916 -66.66181861 275.86689108 -68.33921814 275.8592453 C-70.62414743 275.8493383 -72.90874328 275.85167168 -75.19367981 275.85714722 C-77.11423549 275.85438184 -77.11423549 275.85438184 -79.07359028 275.85156059 C-82.32979242 275.85915849 -82.32979242 275.85915849 -85.16015625 278.09765625 C-86.48850517 280.62475907 -87.69015743 283.11914342 -88.84765625 285.72265625 C-89.55823576 287.27680175 -90.27051655 288.83017037 -90.984375 290.3828125 C-91.3457959 291.17187988 -91.7072168 291.96094727 -92.07958984 292.77392578 C-93.70548805 296.27037836 -95.42400939 299.71741214 -97.16015625 303.16015625 C-97.65781494 304.14810181 -97.65781494 304.14810181 -98.16552734 305.15600586 C-98.83436233 306.48280443 -99.50363054 307.80938471 -100.17333984 309.13574219 C-101.14103524 311.0596413 -102.09951021 312.987828 -103.0546875 314.91796875 C-107.29822971 323.48220849 -111.68629872 331.96296774 -116.14355469 340.41796875 C-119.47773771 346.75408638 -122.69506908 353.13660862 -125.8203125 359.578125 C-127.16015625 362.09765625 -127.16015625 362.09765625 -129.16015625 364.09765625 C-131.10903931 364.33816528 -131.10903931 364.33816528 -133.51806641 364.32470703 C-134.41884918 364.32455597 -135.31963196 364.32440491 -136.24771118 364.32424927 C-137.22170868 364.3139267 -138.19570618 364.30360413 -139.19921875 364.29296875 C-140.19521088 364.29013885 -141.191203 364.28730896 -142.21737671 364.28439331 C-145.40675743 364.27317465 -148.59586003 364.24806706 -151.78515625 364.22265625 C-153.94400637 364.21262863 -156.10286088 364.2035024 -158.26171875 364.1953125 C-163.56129324 364.17322986 -168.86070488 364.13973583 -174.16015625 364.09765625 C-176.15943202 329.73164361 -176.15943202 329.73164361 -165.48095703 314.11376953 C-163.36784501 310.88824661 -161.75522219 307.447528 -160.09765625 303.97265625 C-157.38096805 298.46175819 -154.55244456 293.01823322 -151.66015625 287.59765625 C-147.34409165 279.50319065 -143.22837205 271.3188844 -139.16015625 263.09765625 C-134.89637385 254.48226464 -130.57011267 245.91753098 -126.01513672 237.4519043 C-124.04306533 233.77905432 -122.13282413 230.08451264 -120.28515625 226.34765625 C-117.33801123 220.38929784 -114.23963266 214.51545651 -111.11376953 208.64941406 C-108.45750665 203.64058516 -105.89472178 198.59019455 -103.3671875 193.515625 C-99.22231744 185.19403949 -94.98565165 176.92173143 -90.72265625 168.66015625 C-90.35264496 167.94219879 -89.98263367 167.22424133 -89.60140991 166.48452759 C-85.09092909 157.73316602 -80.55145667 148.99935119 -75.92041016 140.31103516 C-72.89380662 134.62473449 -70.01137335 128.87338653 -67.16015625 123.09765625 C-62.90030184 114.48097513 -58.57041384 105.91785122 -54.015625 97.45288086 C-52.04343741 93.77968147 -50.13298535 90.0848387 -48.28515625 86.34765625 C-43.09113793 75.86082035 -37.55269083 65.54386545 -32.01489258 55.23535156 C-27.24029123 46.34052981 -22.73199572 37.32255731 -18.25830078 28.2734375 C-14.85560826 21.39593739 -11.38592192 14.56083402 -7.78515625 7.78515625 C-7.43904297 7.13216553 -7.09292969 6.4791748 -6.73632812 5.80639648 C-3.69147398 0.11407522 -3.69147398 0.11407522 0 0 Z M2.83984375 103.09765625 C-0.13949262 107.24971013 -2.53760564 111.57201661 -4.78515625 116.16015625 C-5.12361572 116.84279541 -5.4620752 117.52543457 -5.81079102 118.22875977 C-9.08185262 124.8603694 -12.21911943 131.55515668 -15.37524414 138.24194336 C-18.35965803 144.52284806 -21.53607598 150.67068559 -24.83789062 156.78930664 C-27.59837357 161.94095484 -30.13012894 167.17514304 -32.59765625 172.47265625 C-36.0201362 179.81435525 -39.6751024 186.99773369 -43.47998047 194.14794922 C-46.29127159 199.43361838 -49.04157349 204.74469565 -51.72265625 210.09765625 C-52.05724854 210.76240967 -52.39184082 211.42716309 -52.73657227 212.11206055 C-54.0524464 214.75177541 -55.22589943 217.29488578 -56.16015625 220.09765625 C-17.22015625 220.09765625 21.71984375 220.09765625 61.83984375 220.09765625 C61.50984375 218.77765625 61.17984375 217.45765625 60.83984375 216.09765625 C60.50651042 214.76432292 60.17317708 213.43098958 59.83984375 212.09765625 C59.17984375 212.09765625 58.51984375 212.09765625 57.83984375 212.09765625 C57.57558594 211.24171875 57.31132812 210.38578125 57.0390625 209.50390625 C55.81267497 206.02048628 54.33044832 202.88718573 52.65234375 199.59765625 C51.93969259 198.19161478 51.22749481 196.78534347 50.515625 195.37890625 C49.8980835 194.16267578 49.8980835 194.16267578 49.26806641 192.921875 C46.60391271 187.65368185 43.97165887 182.3694674 41.33410645 177.08792114 C40.33898952 175.09594629 39.34299443 173.1044131 38.34667969 171.11303711 C32.95311203 160.33235685 32.95311203 160.33235685 30.375 155.1328125 C26.97326757 148.27761027 23.47280874 141.48763294 19.84472656 134.74951172 C16.33256565 128.20349302 13.0280922 121.55709539 9.73291016 114.89990234 C8.44238432 112.29556617 7.14115627 109.69661563 5.83984375 107.09765625 C5.17317708 105.76432292 4.50651042 104.43098958 3.83984375 103.09765625 C3.50984375 103.09765625 3.17984375 103.09765625 2.83984375 103.09765625 Z " fill="#F6F7F3" transform="translate(174.16015625,40.90234375)"/>
<path d="M0 0 C20.25518463 -0.09384179 40.51032456 -0.16417302 60.76568222 -0.20724869 C70.17263854 -0.22778965 79.57945904 -0.25574631 88.98632812 -0.30175781 C97.19456084 -0.341887 105.40269509 -0.36749415 113.61102319 -0.37635398 C117.94895399 -0.38152505 122.28660334 -0.39349744 126.62444305 -0.42292023 C157.53004378 -0.62434664 189.72851045 0.99952701 214 23 C214 23.66 214 24.32 214 25 C214.58394531 25.26167969 215.16789063 25.52335937 215.76953125 25.79296875 C228.13565836 32.48497099 235.91261648 48.54683421 241 61 C241.37898437 61.92554688 241.75796875 62.85109375 242.1484375 63.8046875 C247.16469871 76.81679363 248.51251419 88.858253 248.44604492 102.67382812 C248.4375346 105.36406098 248.46639664 108.0521628 248.49804688 110.7421875 C248.54136655 121.49658929 247.43741392 130.78002731 244 141 C243.62214355 142.1432373 243.24428711 143.28647461 242.85498047 144.46435547 C236.78385792 162.14312311 224.38702682 179.18661173 209 190 C208.01 190 207.02 190 206 190 C206 190.66 206 191.32 206 192 C205.26394531 192.39832031 204.52789062 192.79664063 203.76953125 193.20703125 C202.79371094 193.73683594 201.81789063 194.26664063 200.8125 194.8125 C199.36810547 195.59560547 199.36810547 195.59560547 197.89453125 196.39453125 C196.03814693 197.42418571 194.20517634 198.49796181 192.40625 199.625 C189.01430339 201.5632552 185.80289258 202.16207452 182 203 C184.64961033 209.72962624 188.19236386 215.90159227 191.75 222.1875 C192.34554687 223.24775391 192.94109375 224.30800781 193.5546875 225.40039062 C197.12882779 231.74797094 200.76486588 238.05636959 204.45507812 244.3371582 C206.43908663 247.75681383 208.32921053 251.22255207 210.2109375 254.69921875 C216.99530526 267.21622913 223.89199399 279.66379123 231 292 C238.28839015 304.71095242 245.55932894 317.43162107 252.515625 330.328125 C254.79843956 334.4371912 257.23814879 338.45236598 259.6796875 342.46875 C261 345 261 345 261 348 C261.66 348 262.32 348 263 348 C264.03544174 349.90881434 265.05290085 351.82739204 266.0625 353.75 C266.63097656 354.81734375 267.19945312 355.8846875 267.78515625 356.984375 C269.0787723 360.19553766 268.99355203 360.87488087 268 364 C260.28122664 364.20892707 252.56274766 364.36864028 244.84178734 364.46630955 C241.25597355 364.5132002 237.67209949 364.57673688 234.08740234 364.67895508 C230.6248041 364.77706869 227.16406517 364.83061876 223.70018387 364.85389519 C221.74207366 364.87851477 219.78470795 364.94873008 217.82772827 365.01966858 C209.12110426 365.02459748 209.12110426 365.02459748 205.89735413 362.07835388 C204.33513896 359.77422641 203.14059638 357.5353886 202 355 C201.26134329 353.65084943 200.51652492 352.30502606 199.76171875 350.96484375 C199.06600821 349.62462143 198.37469159 348.28211025 197.6875 346.9375 C191.72416973 335.48042309 185.38587169 324.24799539 178.80078125 313.13671875 C176.70397446 309.48436333 174.69499051 305.78868217 172.68383789 302.08862305 C169.67200281 296.56408693 166.61613255 291.06400889 163.5625 285.5625 C162.93279297 284.42490234 162.30308594 283.28730469 161.65429688 282.11523438 C158.03971306 275.6030397 154.35760938 269.14051716 150.55834961 262.73413086 C148.92637687 259.87082791 147.44861989 256.95979208 146 254 C143.46504828 248.82896818 140.65235328 243.88335971 137.71875 238.9296875 C134.35389295 233.19413571 131.23996623 227.32060806 128.10546875 221.45703125 C127.78642578 220.86140381 127.46738281 220.26577637 127.13867188 219.65209961 C126.22979393 217.95401887 125.3238102 216.25439 124.41796875 214.5546875 C123.22995356 212.138255 123.22995356 212.138255 122 211 C120.60169619 211.01292471 119.20382057 211.08217178 117.80859375 211.17578125 C103.82237462 211.68878422 103.82237462 211.68878422 99.17578125 207.3828125 C97.45446872 204.30330408 96.05260155 201.33819523 94.80664062 198.04980469 C93.72010693 195.28874631 92.38161875 192.6893624 91.0246582 190.05322266 C90.00234756 188.06706088 89.0122395 186.06744019 88.02734375 184.0625 C85.94413484 179.85729633 83.76918717 175.70402883 81.5625 171.5625 C81.22025391 170.91740479 80.87800781 170.27230957 80.52539062 169.60766602 C79.03341461 166.61474583 79.03341461 166.61474583 77 164 C76.95936168 162.33382885 76.957279 160.66611905 77 159 C77.85031799 158.99191315 78.70063599 158.98382629 79.57672119 158.97549438 C87.63755342 158.89716272 95.69822731 158.80975976 103.75885391 158.71247292 C107.9017027 158.66278301 112.04452929 158.61645349 116.1875 158.578125 C120.1947015 158.54092356 124.2017039 158.49447551 128.2087326 158.44193649 C129.72829401 158.42357576 131.24789779 158.40840227 132.76752472 158.39665604 C144.74185897 158.30089009 156.47123031 158.07862523 167.25 152.3125 C167.92748291 151.9623584 168.60496582 151.6122168 169.30297852 151.25146484 C174.83924139 148.29514976 181.10262683 144.79474633 184 139 C184.66 139 185.32 139 186 139 C186.2475 138.175 186.495 137.35 186.75 136.5 C187.70651825 133.82174889 188.70760405 131.50763392 190 129 C194.79649044 119.58532731 195.3138618 110.38733084 195 100 C194.98324219 99.25878906 194.96648437 98.51757812 194.94921875 97.75390625 C194.31161451 87.82549734 190.02931685 78.75197881 184 71 C184 70.34 184 69.68 184 69 C183.34 69 182.68 69 182 69 C182 68.34 182 67.68 182 67 C181.42378906 66.72929688 180.84757813 66.45859375 180.25390625 66.1796875 C177.98037607 64.9897289 176.01682437 63.62522282 173.9375 62.125 C162.37286953 54.35827773 150.19523619 53.86423028 136.68725586 53.79467773 C135.48625244 53.78477814 134.28524902 53.77487854 133.04785156 53.76467896 C129.78197199 53.73865897 126.51609684 53.71672882 123.25017619 53.69667697 C119.82687925 53.67467184 116.40362462 53.64735486 112.98036194 53.62062073 C106.51018769 53.57088879 100.03998971 53.5258784 93.56976944 53.48259836 C86.19845176 53.43305834 78.82717656 53.37820289 71.45590007 53.32291877 C56.30397305 53.20939843 41.15200592 53.10249527 26 53 C25.72194519 52.47123764 25.44389038 51.94247528 25.15740967 51.39768982 C23.87076399 48.95121964 22.58382079 46.50490607 21.296875 44.05859375 C20.85972168 43.22726929 20.42256836 42.39594482 19.97216797 41.53942871 C17.43164422 36.71079 14.8817761 31.88731556 12.31799316 27.07098389 C10.53564576 23.71907476 8.76450557 20.36133152 7 17 C6.68482422 16.39978027 6.36964844 15.79956055 6.04492188 15.18115234 C5.18880275 13.54149007 4.34405411 11.89590552 3.5 10.25 C3.0359375 9.34765625 2.571875 8.4453125 2.09375 7.515625 C0.99757721 4.99442758 0.49618913 2.69311702 0 0 Z " fill="#F6F7F2" transform="translate(227,41)"/>
<path d="M0 0 C0.33 0.66 0.66 1.32 1 2 C58.915 2.495 58.915 2.495 118 3 C118.33 2.34 118.66 1.68 119 1 C119.495 2.98 119.495 2.98 120 5 C79.74 5 39.48 5 -2 5 C-1.34 3.35 -0.68 1.7 0 0 Z " fill="#787775" transform="translate(118,258)"/>
<path d="M0 0 C20.4797442 -0.02336868 40.95948569 -0.04099869 61.43924046 -0.05181217 C70.94851185 -0.05696669 80.45777495 -0.06399332 89.96704102 -0.07543945 C98.25608527 -0.08541207 106.54512353 -0.09185958 114.83417362 -0.09408849 C119.22243457 -0.09539121 123.61067835 -0.09844937 127.99893379 -0.10573006 C132.1315683 -0.11253091 136.26417859 -0.11460868 140.39681816 -0.11310768 C141.91129564 -0.11338218 143.42577395 -0.11536314 144.94024658 -0.11920547 C147.01350293 -0.12420629 149.08666877 -0.12297487 151.15992737 -0.12025452 C152.31862115 -0.12117631 153.47731493 -0.1220981 154.67112064 -0.12304783 C158.1728759 0.00639014 161.54208654 0.44573803 165 1 C165 1.33 165 1.66 165 2 C111.21 2 57.42 2 2 2 C2.33 3.65 2.66 5.3 3 7 C1.5 5.75 1.5 5.75 0 4 C0 2.68 0 1.36 0 0 Z " fill="#A7A7A2" transform="translate(227,41)"/>
<path d="M0 0 C0.66666667 2 1.33333333 4 2 6 C1.34 6.66 0.68 7.32 0 8 C-0.99 5.525 -0.99 5.525 -2 3 C-33.35 2.67 -64.7 2.34 -97 2 C-97 1.67 -97 1.34 -97 1 C-48.985 0.505 -48.985 0.505 0 0 Z " fill="#B3B0AA" transform="translate(268,314)"/>
<path d="M0 0 C1.93166016 0.01740234 1.93166016 0.01740234 3.90234375 0.03515625 C5.19269531 0.04417969 6.48304688 0.05320313 7.8125 0.0625 C8.81152344 0.07410156 9.81054688 0.08570313 10.83984375 0.09765625 C11.16984375 0.75765625 11.49984375 1.41765625 11.83984375 2.09765625 C7.87984375 1.76765625 3.91984375 1.43765625 -0.16015625 1.09765625 C-0.49015625 2.08765625 -0.82015625 3.07765625 -1.16015625 4.09765625 C-2.82682292 5.76432292 -4.49348958 7.43098958 -6.16015625 9.09765625 C-6.49015625 10.08765625 -6.82015625 11.07765625 -7.16015625 12.09765625 C-7.82015625 12.09765625 -8.48015625 12.09765625 -9.16015625 12.09765625 C-4.58880126 0.14180474 -4.58880126 0.14180474 0 0 Z " fill="#A9A9A5" transform="translate(174.16015625,40.90234375)"/>
<path d="M0 0 C0 0.99 0 1.98 0 3 C-0.66 3.66 -1.32 4.32 -2 5 C-1.67801034 8.09926819 -1.67801034 8.09926819 -1 11 C-3.62002725 8.62949916 -5.35819909 6.12723983 -7 3 C-7 2.01 -7 1.02 -7 0 C-3.98968256 -0.93423645 -3.13349732 -1.04449911 0 0 Z " fill="#C5C6C0" transform="translate(383,298)"/>
<path d="M0 0 C0.58984375 1.8515625 0.58984375 1.8515625 1 4 C0.525625 4.78375 0.05125 5.5675 -0.4375 6.375 C-2.29187027 9.49034205 -2.24856165 11.43728304 -2 15 C-2.99 15.33 -3.98 15.66 -5 16 C-5.33 16.66 -5.66 17.32 -6 18 C-6.66 18 -7.32 18 -8 18 C-6.65150163 13.64029169 -4.95092154 9.68658562 -2.875 5.625 C-2.33617187 4.56539063 -1.79734375 3.50578125 -1.2421875 2.4140625 C-0.83226562 1.61742187 -0.42234375 0.82078125 0 0 Z " fill="#B7B6B2" transform="translate(17,339)"/>
<path d="M0 0 C0.33 0 0.66 0 1 0 C2.88610478 16.8929385 2.88610478 16.8929385 -2 24 C-3.12091722 20.63724834 -2.84038168 19.3429128 -2.125 15.9375 C-1.07908491 10.63725464 -0.4435604 5.38108807 0 0 Z " fill="#9E9D9A" transform="translate(423,142)"/>
<path d="M0 0 C2.04159095 -0.0272616 4.08328963 -0.04651345 6.125 -0.0625 C7.26195312 -0.07410156 8.39890625 -0.08570313 9.5703125 -0.09765625 C12.8129156 -0.005327 15.81932612 0.38610094 19 1 C19 1.33 19 1.66 19 2 C18.10796875 1.96519531 17.2159375 1.93039063 16.296875 1.89453125 C14.54117187 1.85392578 14.54117187 1.85392578 12.75 1.8125 C11.58984375 1.77769531 10.4296875 1.74289063 9.234375 1.70703125 C5.77731593 2.02017066 4.48434437 2.65709108 2 5 C2 4.34 2 3.68 2 3 C1.34 3 0.68 3 0 3 C0 2.01 0 1.02 0 0 Z M-2 3 C0 4 0 4 0 4 Z " fill="#D5D6CE" transform="translate(383,43)"/>
<path d="M0 0 C0.33 1.32 0.66 2.64 1 4 C0.34 4 -0.32 4 -1 4 C-0.938125 5.1446875 -0.938125 5.1446875 -0.875 6.3125 C-1 9 -1 9 -3 12 C-3.66 12 -4.32 12 -5 12 C-5 13.65 -5 15.3 -5 17 C-5.99 17.33 -6.98 17.66 -8 18 C-6.52232949 11.35048271 -3.37863948 5.8754328 0 0 Z " fill="#A6A5A1" transform="translate(54,267)"/>
<path d="M0 0 C0.144375 0.639375 0.28875 1.27875 0.4375 1.9375 C0.81007181 3.97545146 0.81007181 3.97545146 2 5 C2 5.99 2 6.98 2 8 C0.25 9.60546875 0.25 9.60546875 -2 11.1875 C-2.7425 11.71730469 -3.485 12.24710937 -4.25 12.79296875 C-4.8275 13.19128906 -5.405 13.58960938 -6 14 C-4.50829734 9.0276578 -2.39542583 4.58154261 0 0 Z " fill="#B7B6B3" transform="translate(41,292)"/>
<path d="M0 0 C2.99332739 0.9977758 3.94766315 1.7522025 6 4 C5.34 4 4.68 4 4 4 C4 4.99 4 5.98 4 7 C5.32 7.33 6.64 7.66 8 8 C7.01 8.495 7.01 8.495 6 9 C6.33 10.65 6.66 12.3 7 14 C4.08773121 12.5438656 3.68157936 10.50039336 2.375 7.5625 C1.70597656 6.07943359 1.70597656 6.07943359 1.0234375 4.56640625 C0 2 0 2 0 0 Z " fill="#AEB0AA" transform="translate(200,187)"/>
<path d="M0 0 C2.77398263 3.46747828 4.95912413 7.06402511 7 11 C6.67 11.66 6.34 12.32 6 13 C1.77202073 10.18134715 1.77202073 10.18134715 0 8 C-0.53855713 5.14353521 -0.29847264 2.93498095 0 0 Z " fill="#9F9F9B" transform="translate(273,211)"/>
<path d="M0 0 C0.97591583 3.38317487 0.85856655 5.5657338 0 9 C-0.66 9 -1.32 9 -2 9 C-2.99 11.31 -3.98 13.62 -5 16 C-5.66 16 -6.32 16 -7 16 C-5.56835889 12.34061828 -4.01065704 8.76011932 -2.375 5.1875 C-1.92898437 4.21167969 -1.48296875 3.23585937 -1.0234375 2.23046875 C-0.51683594 1.12638672 -0.51683594 1.12638672 0 0 Z " fill="#969692" transform="translate(102,173)"/>
<path d="M0 0 C-0.928125 0.5878125 -0.928125 0.5878125 -1.875 1.1875 C-4.32496368 3.27717491 -5.01879998 4.97463327 -6 8 C-6.33 7.34 -6.66 6.68 -7 6 C-7.66 5.67 -8.32 5.34 -9 5 C-9 3.05967459 -7.96481249 1.62494736 -7 0 C-3.86650268 -1.04449911 -3.01031744 -0.93423645 0 0 Z " fill="#BFBDBA" transform="translate(93,316)"/>
<path d="M0 0 C0.98320351 3.05885536 1.34808088 5.03422206 0 8 C-1.90047954 9.84240933 -3.89091152 11.38452797 -6 13 C-4.58707905 8.1725201 -2.57025846 4.2837641 0 0 Z " fill="#B3B3AE" transform="translate(85,207)"/>
<path d="M0 0 C1.31534494 3.65857532 0.65468309 6.08026481 -0.4375 9.75 C-0.86869141 11.22726563 -0.86869141 11.22726563 -1.30859375 12.734375 C-1.53675781 13.48203125 -1.76492188 14.2296875 -2 15 C-2.33 15 -2.66 15 -3 15 C-3 11.37 -3 7.74 -3 4 C-2.34 3.67 -1.68 3.34 -1 3 C-0.67 2.01 -0.34 1.02 0 0 Z " fill="#9B9B98" transform="translate(473,167)"/>
<path d="M0 0 C0.33 0.66 0.66 1.32 1 2 C0.29296875 3.875 0.29296875 3.875 -0.8125 6 C-1.34810547 7.051875 -1.34810547 7.051875 -1.89453125 8.125 C-3 10 -3 10 -5 12 C-5.99 11.67 -6.98 11.34 -8 11 C-6.625 9 -6.625 9 -5 7 C-4.34 7 -3.68 7 -3 7 C-2.690625 6.030625 -2.38125 5.06125 -2.0625 4.0625 C-1 1 -1 1 0 0 Z " fill="#9F9F9B" transform="translate(416,173)"/>
<path d="M0 0 C1.2536419 3.51180455 0.77956527 5.33464859 -0.75 8.6875 C-1.09546875 9.47511719 -1.4409375 10.26273438 -1.796875 11.07421875 C-3 13 -3 13 -6 14 C-4.50829734 9.0276578 -2.39542583 4.58154261 0 0 Z " fill="#AAAAA5" transform="translate(133,113)"/>
<path d="M0 0 C0.66 0.66 1.32 1.32 2 2 C1.875 4 1.875 4 1 6 C-1.0625 7.25 -1.0625 7.25 -3 8 C-3 8.99 -3 9.98 -3 11 C-3.66 11 -4.32 11 -5 11 C-3.55049545 7.2089881 -1.84827434 3.6125362 0 0 Z " fill="#B5B5B0" transform="translate(25,324)"/>
<path d="M0 0 C0.66 0 1.32 0 2 0 C2 0.99 2 1.98 2 3 C2.66 3 3.32 3 4 3 C4 3.66 4 4.32 4 5 C4.99 5 5.98 5 7 5 C7 7.64 7 10.28 7 13 C4.42783245 9.91339894 0 4.22150213 0 0 Z " fill="#A2A29E" transform="translate(311,216)"/>
<path d="M0 0 C4.29 0 8.58 0 13 0 C13 0.33 13 0.66 13 1 C9.37 1.33 5.74 1.66 2 2 C2.33 3.65 2.66 5.3 3 7 C1.5 5.75 1.5 5.75 0 4 C0 2.68 0 1.36 0 0 Z " fill="#9F9F9A" transform="translate(227,41)"/>
<path d="M0 0 C0.66 0 1.32 0 2 0 C2 0.66 2 1.32 2 2 C3.65 2.33 5.3 2.66 7 3 C6.34 4.98 5.68 6.96 5 9 C2.67527795 6.14693203 1.2491742 3.45925163 0 0 Z " fill="#BDBDB9" transform="translate(289,361)"/>
<path d="M0 0 C2.32472205 2.85306797 3.7508258 5.54074837 5 9 C2.03 8.505 2.03 8.505 -1 8 C-0.7525 7.13375 -0.7525 7.13375 -0.5 6.25 C0.14462031 3.73335631 0.14462031 3.73335631 0 0 Z " fill="#A0A09B" transform="translate(321,301)"/>
<path d="M0 0 C2.97069541 2.54631035 4.4775751 5.42230149 6 9 C5.67 9.66 5.34 10.32 5 11 C3.68 10.01 2.36 9.02 1 8 C1.33 7.01 1.66 6.02 2 5 C1.34 4.67 0.68 4.34 0 4 C0 2.68 0 1.36 0 0 Z " fill="#ADADA3" transform="translate(298,259)"/>
<path d="M0 0 C2.97246802 2.54782974 4.41535288 5.45340883 6 9 C6 9.66 6 10.32 6 11 C5.34 11 4.68 11 4 11 C3.34 10.34 2.68 9.68 2 9 C1.01 9.495 1.01 9.495 0 10 C0.66 8.02 1.32 6.04 2 4 C1.34 4 0.68 4 0 4 C0 2.68 0 1.36 0 0 Z " fill="#AEADAA" transform="translate(258,183)"/>
<path d="M0 0 C0.66 0 1.32 0 2 0 C2.66 0.66 3.32 1.32 4 2 C4.66 2.33 5.32 2.66 6 3 C6 5.31 6 7.62 6 10 C2.63408573 7.27521226 1.55773724 3.93143208 0 0 Z " fill="#AFAFAB" transform="translate(397,337)"/>
<path d="M0 0 C3.0916909 2.52956528 3.90931332 5.22454612 5 9 C3.68 8.67 2.36 8.34 1 8 C0.67 5.36 0.34 2.72 0 0 Z " fill="#B1B1AC" transform="translate(435,294)"/>
<path d="M0 0 C4.42857143 5.14285714 4.42857143 5.14285714 5 9 C2.5625 8.1875 2.5625 8.1875 0 7 C-1.04449911 3.86650268 -0.93423645 3.01031744 0 0 Z " fill="#BABCB6" transform="translate(410,249)"/>
<path d="M0 0 C0.66 0 1.32 0 2 0 C2 0.66 2 1.32 2 2 C2.99 2.33 3.98 2.66 5 3 C5.33 5.31 5.66 7.62 6 10 C2.63408573 7.27521226 1.55773724 3.93143208 0 0 Z " fill="#94928E" transform="translate(426,389)"/>
<path d="M0 0 C0 3.86695678 -1.41909971 6.5088452 -3 10 C-3.66 9.34 -4.32 8.68 -5 8 C-4.875 5.5625 -4.875 5.5625 -4 3 C-1.9375 1.1875 -1.9375 1.1875 0 0 Z " fill="#B6B6B3" transform="translate(56,382)"/>
<path d="M0 0 C0.66666667 2 1.33333333 4 2 6 C1.34 6.66 0.68 7.32 0 8 C-0.66 6.35 -1.32 4.7 -2 3 C-2.66 3 -3.32 3 -4 3 C-4 2.34 -4 1.68 -4 1 C-2.68 0.67 -1.36 0.34 0 0 Z " fill="#BFBFBB" transform="translate(268,314)"/>
<path d="M0 0 C4.42857143 5.14285714 4.42857143 5.14285714 5 9 C3.0625 8.1875 3.0625 8.1875 1 7 C0 4 0 4 0 0 Z " fill="#A8A8A3" transform="translate(244,156)"/>
<path d="M0 0 C2.475 0.495 2.475 0.495 5 1 C5 1.66 5 2.32 5 3 C4.34 3 3.68 3 3 3 C3.33 4.98 3.66 6.96 4 9 C3.525625 8.505 3.05125 8.01 2.5625 7.5 C1.24076302 5.88457803 1.24076302 5.88457803 0 6 C0 4.02 0 2.04 0 0 Z " fill="#ACAAA5" transform="translate(176,139)"/>
<path d="M0 0 C3.0916909 2.52956528 3.90931332 5.22454612 5 9 C4.01 9 3.02 9 2 9 C2 7.68 2 6.36 2 5 C1.01 4.67 0.02 4.34 -1 4 C-0.67 2.68 -0.34 1.36 0 0 Z " fill="#9C9894" transform="translate(310,281)"/>
<path d="M0 0 C4 2 4 2 6 5 C5.34 6.32 4.68 7.64 4 9 C2.68 6.03 1.36 3.06 0 0 Z " fill="#A0A09B" transform="translate(226,240)"/>
<path d="M0 0 C0.66 0.33 1.32 0.66 2 1 C0.35 2.65 -1.3 4.3 -3 6 C-4.32 5.34 -5.64 4.68 -7 4 C-1.7265625 0.77734375 -1.7265625 0.77734375 0 0 Z " fill="#999792" transform="translate(400,190)"/>
<path d="M0 0 C1.125 1.75 1.125 1.75 2 4 C1.125 6.25 1.125 6.25 0 8 C-3 3.25 -3 3.25 -3 1 C-2.01 0.67 -1.02 0.34 0 0 Z " fill="#C4C4BC" transform="translate(411,355)"/>
<path d="M0 0 C3.03869411 1.51934706 3.64410306 3.98004772 5 7 C5 7.66 5 8.32 5 9 C3.68 9 2.36 9 1 9 C0.67 6.03 0.34 3.06 0 0 Z " fill="#A9A9A3" transform="translate(440,303)"/>
<path d="M0 0 C1.32 0 2.64 0 4 0 C3.67 1.32 3.34 2.64 3 4 C3.99 4 4.98 4 6 4 C5.34 5.32 4.68 6.64 4 8 C2.68 5.36 1.36 2.72 0 0 Z " fill="#AEAEA7" transform="translate(367,283)"/>
<path d="M0 0 C2 2 2 2 2 5 C1.01 5 0.02 5 -1 5 C-1.33 5.99 -1.66 6.98 -2 8 C-2 4.23312136 -1.76462683 3.08809695 0 0 Z " fill="#B4B5AF" transform="translate(3,367)"/>
<path d="M0 0 C0.87491004 2.4497481 1.12900603 3.63448293 0.25 6.125 C-1 8 -1 8 -4 10 C-2.8905928 6.51329166 -1.73662334 3.22515763 0 0 Z " fill="#939491" transform="translate(76,224)"/>
<path d="M0 0 C1.32 0 2.64 0 4 0 C2.25 5.75 2.25 5.75 0 8 C-0.33 6.68 -0.66 5.36 -1 4 C-0.34 4 0.32 4 1 4 C0.67 2.68 0.34 1.36 0 0 Z " fill="#9D9D9A" transform="translate(156,177)"/>
<path d="M0 0 C2.15377564 2.62198774 3.40072174 4.64404172 4 8 C2.68 8 1.36 8 0 8 C0 5.36 0 2.72 0 0 Z " fill="#A0A097" transform="translate(251,169)"/>
<path d="M0 0 C0.66 0.99 1.32 1.98 2 3 C1.0022242 5.99332739 0.2477975 6.94766315 -2 9 C-2.66 8.67 -3.32 8.34 -4 8 C-2.68 5.36 -1.36 2.72 0 0 Z " fill="#AAAAA1" transform="translate(109,160)"/>
<path d="M0 0 C0.93423645 3.01031744 1.04449911 3.86650268 0 7 C-2.0625 8.1875 -2.0625 8.1875 -4 9 C-2.94124926 5.59687262 -1.99097846 2.98646769 0 0 Z " fill="#8D8D89" transform="translate(126,127)"/>
<path d="M0 0 C2 1 2 1 3.125 4.0625 C3.41375 5.031875 3.7025 6.00125 4 7 C1.525 6.01 1.525 6.01 -1 5 C-0.67 3.35 -0.34 1.7 0 0 Z " fill="#9A9B95" transform="translate(460,338)"/>
</svg>
